Evolventa-Bold.ufo
<glyph name="uni0461" format="1">
  <advance width="916"/>
  <unicode hex="0461"/>
  <outline>
    <contour>
      <point x="60" y="547" type="line"/>
      <point x="193" y="547" type="line"/>
      <point x="193" y="357" type="line" smooth="yes"/>
      <point x="193" y="237"/>
      <point x="243" y="135"/>
      <point x="278" y="113" type="curve"/>
      <point x="333" y="158"/>
      <point x="393" y="239"/>
      <point x="393" y="341" type="curve" smooth="yes"/>
      <point x="393" y="547" type="line"/>
      <point x="395" y="547" type="line"/>
      <point x="524" y="547" type="line"/>
      <point x="526" y="547" type="line"/>
      <point x="526" y="341" type="line" smooth="yes"/>
      <point x="526" y="204"/>
      <point x="603" y="137"/>
      <point x="635" y="113" type="curve"/>
      <point x="686" y="162"/>
      <point x="724" y="234"/>
      <point x="724" y="357" type="curve" smooth="yes"/>
      <point x="724" y="547" type="line"/>
      <point x="857" y="547" type="line"/>
      <point x="857" y="357" type="line" smooth="yes"/>
      <point x="857" y="192"/>
      <point x="729" y="45"/>
      <point x="585" y="-13" type="curve"/>
      <point x="514" y="42"/>
      <point x="448" y="110"/>
      <point x="430" y="160" type="curve"/>
      <point x="406" y="108"/>
      <point x="327" y="26"/>
      <point x="228" y="-13" type="curve"/>
      <point x="149" y="68"/>
      <point x="60" y="167"/>
      <point x="60" y="357" type="curve" smooth="yes"/>
    </contour>
  </outline>
</glyph>
<glyph name="uni0464" format="1">
  <advance width="995"/>
  <unicode hex="0464"/>
  <outline>
    <contour>
      <point x="801" y="209" type="curve"/>
      <point x="962" y="209" type="line"/>
      <point x="904" y="74"/>
      <point x="773" y="-10"/>
      <point x="621" y="-10" type="curve" smooth="yes"/>
      <point x="427" y="-10"/>
      <point x="268" y="127"/>
      <point x="237" y="310" type="curve"/>
      <point x="197" y="310" type="line"/>
      <point x="197" y="0" type="line"/>
      <point x="60" y="0" type="line"/>
      <point x="60" y="739" type="line"/>
      <point x="197" y="739" type="line"/>
      <point x="197" y="441" type="line"/>
      <point x="238" y="441" type="line"/>
      <point x="269" y="619"/>
      <point x="425" y="755"/>
      <point x="612" y="755" type="curve" smooth="yes"/>
      <point x="778" y="755"/>
      <point x="904" y="657"/>
      <point x="962" y="530" type="curve"/>
      <point x="809" y="530" type="line"/>
      <point x="759" y="595"/>
      <point x="701" y="623"/>
      <point x="615" y="623" type="curve" smooth="yes"/>
      <point x="494" y="623"/>
      <point x="407" y="546"/>
      <point x="379" y="441" type="curve"/>
      <point x="742" y="441" type="line"/>
      <point x="742" y="310" type="line"/>
      <point x="378" y="310" type="line"/>
      <point x="406" y="202"/>
      <point x="503" y="122"/>
      <point x="618" y="122" type="curve" smooth="yes"/>
      <point x="689" y="122"/>
      <point x="740" y="146"/>
    </contour>
  </outline>
</glyph>
<glyph name="uni0467" format="1">
  <advance width="606"/>
  <unicode hex="0467"/>
  <outline>
    <contour>
      <point x="299" y="623" type="move" name="Anchor-0"/>
    </contour>
    <contour>
      <point x="586" y="0" type="line"/>
      <point x="444" y="0" type="line"/>
      <point x="409" y="91" type="line"/>
      <point x="369" y="70" type="line"/>
      <point x="369" y="0" type="line"/>
      <point x="236" y="0" type="line"/>
      <point x="236" y="73" type="line"/>
      <point x="198" y="93" type="line"/>
      <point x="162" y="0" type="line"/>
      <point x="20" y="0" type="line"/>
      <point x="251" y="554" type="line"/>
      <point x="355" y="554" type="line"/>
    </contour>
    <contour>
      <point x="370" y="192" type="line"/>
      <point x="303" y="368" type="line"/>
      <point x="236" y="194" type="line"/>
      <point x="303" y="157" type="line"/>
    </contour>
  </outline>
</glyph>
<glyph name="uni046C" format="1">
  <advance width="1132"/>
  <unicode hex="046C"/>
  <outline>
    <contour>
      <point x="587" y="805" type="move" name="Anchor-0"/>
    </contour>
    <contour>
      <point x="719" y="0" type="line"/>
      <point x="582" y="0" type="line"/>
      <point x="582" y="270" type="line"/>
      <point x="447" y="270"/>
      <point x="393" y="101"/>
      <point x="393" y="0" type="curve"/>
      <point x="229" y="-0" type="line"/>
      <point x="229" y="114"/>
      <point x="266" y="235"/>
      <point x="331" y="310" type="curve"/>
      <point x="197" y="310" type="line"/>
      <point x="197" y="0" type="line"/>
      <point x="60" y="0" type="line"/>
      <point x="60" y="739" type="line"/>
      <point x="197" y="739" type="line"/>
      <point x="197" y="441" type="line"/>
      <point x="447" y="441" type="line"/>
      <point x="348" y="604" type="line"/>
      <point x="348" y="739" type="line"/>
      <point x="953" y="739" type="line"/>
      <point x="953" y="604" type="line"/>
      <point x="824" y="384" type="line"/>
      <point x="979" y="384"/>
      <point x="1072" y="184"/>
      <point x="1072" y="0" type="curve"/>
      <point x="908" y="0" type="line"/>
      <point x="908" y="101"/>
      <point x="854" y="270"/>
      <point x="719" y="270" type="curve"/>
    </contour>
    <contour>
      <point x="520" y="604" type="line"/>
      <point x="644" y="405" type="line"/>
      <point x="768" y="604" type="line"/>
    </contour>
  </outline>
</glyph>
<glyph name="uni046D" format="1">
  <advance width="967"/>
  <unicode hex="046D"/>
  <outline>
    <contour>
      <point x="575" y="299" type="line"/>
      <point x="672" y="434" type="line"/>
      <point x="484" y="434" type="line"/>
    </contour>
    <contour>
      <point x="818" y="446" type="line"/>
      <point x="699" y="281" type="line"/>
      <point x="820" y="281"/>
      <point x="913" y="124"/>
      <point x="913" y="0" type="curve"/>
      <point x="769" y="0" type="line"/>
      <point x="769" y="76"/>
      <point x="707" y="172"/>
      <point x="633" y="172" type="curve"/>
      <point x="633" y="0" type="line"/>
      <point x="500" y="0" type="line"/>
      <point x="500" y="172" type="line"/>
      <point x="426" y="172"/>
      <point x="364" y="68"/>
      <point x="364" y="0" type="curve"/>
      <point x="220" y="-0" type="line"/>
      <point x="220" y="68"/>
      <point x="256" y="159"/>
      <point x="311" y="219" type="curve"/>
      <point x="187" y="219" type="line"/>
      <point x="187" y="0" type="line"/>
      <point x="54" y="0" type="line"/>
      <point x="54" y="554" type="line"/>
      <point x="187" y="554" type="line"/>
      <point x="187" y="340" type="line"/>
      <point x="390" y="340" type="line"/>
      <point x="312" y="446" type="line"/>
      <point x="312" y="554" type="line"/>
      <point x="818" y="554" type="line"/>
    </contour>
  </outline>
</glyph>
<glyph name="uni046E" format="1">
  <advance width="587"/>
  <unicode hex="046E"/>
  <outline>
    <contour>
      <point x="168" y="462" type="line"/>
      <point x="251" y="462" type="line" smooth="yes"/>
      <point x="297" y="462"/>
      <point x="350" y="494"/>
      <point x="350" y="546" type="curve" smooth="yes"/>
      <point x="350" y="586"/>
      <point x="305" y="620"/>
      <point x="249" y="620" type="curve" smooth="yes"/>
      <point x="92" y="620" type="line"/>
      <point x="92" y="752" type="line"/>
      <point x="191" y="752" type="line"/>
      <point x="74" y="878" type="line"/>
      <point x="203" y="878" type="line"/>
      <point x="249" y="814" type="line"/>
      <point x="297" y="878" type="line"/>
      <point x="428" y="878" type="line"/>
      <point x="305" y="749" type="line"/>
      <point x="406" y="732"/>
      <point x="483" y="652"/>
      <point x="483" y="558" type="curve" smooth="yes"/>
      <point x="483" y="466"/>
      <point x="440" y="418"/>
      <point x="408" y="406" type="curve"/>
      <point x="452" y="393"/>
      <point x="512" y="321"/>
      <point x="512" y="211" type="curve" smooth="yes"/>
      <point x="512" y="88"/>
      <point x="408" y="-13"/>
      <point x="282" y="-13" type="curve" smooth="yes"/>
      <point x="242" y="-13" type="line" smooth="yes"/>
      <point x="216" y="-13"/>
      <point x="202" y="-31"/>
      <point x="202" y="-59" type="curve" smooth="yes"/>
      <point x="202" y="-91"/>
      <point x="217" y="-128"/>
      <point x="265" y="-169" type="curve"/>
      <point x="125" y="-169" type="line"/>
      <point x="85" y="-116"/>
      <point x="70" y="-65"/>
      <point x="70" y="-18" type="curve" smooth="yes"/>
      <point x="70" y="58"/>
      <point x="116" y="119"/>
      <point x="171" y="119" type="curve" smooth="yes"/>
      <point x="251" y="119" type="line" smooth="yes"/>
      <point x="320" y="119"/>
      <point x="374" y="161"/>
      <point x="374" y="213" type="curve" smooth="yes"/>
      <point x="374" y="302"/>
      <point x="304" y="338"/>
      <point x="256" y="342" type="curve"/>
      <point x="168" y="342" type="line"/>
    </contour>
  </outline>
</glyph>
<glyph name="uni046F" format="1">
  <advance width="531"/>
  <unicode hex="046F"/>
  <outline>
    <contour>
      <point x="184" y="241" type="line"/>
      <point x="184" y="329" type="line"/>
      <point x="260" y="329" type="line" smooth="yes"/>
      <point x="300" y="329"/>
      <point x="318" y="356"/>
      <point x="318" y="389" type="curve" smooth="yes"/>
      <point x="318" y="416"/>
      <point x="290" y="438"/>
      <point x="256" y="438" type="curve" smooth="yes"/>
      <point x="118" y="438" type="line"/>
      <point x="118" y="560" type="line"/>
      <point x="203" y="560" type="line"/>
      <point x="86" y="686" type="line"/>
      <point x="215" y="686" type="line"/>
      <point x="264" y="627" type="line"/>
      <point x="319" y="686" type="line"/>
      <point x="430" y="686" type="line"/>
      <point x="317" y="557" type="line"/>
      <point x="392" y="557"/>
      <point x="447" y="479"/>
      <point x="447" y="409" type="curve" smooth="yes"/>
      <point x="447" y="357"/>
      <point x="426" y="308"/>
      <point x="395" y="292" type="curve"/>
      <point x="440" y="276"/>
      <point x="481" y="234"/>
      <point x="481" y="165" type="curve" smooth="yes"/>
      <point x="481" y="69"/>
      <point x="406" y="-13"/>
      <point x="310" y="-13" type="curve" smooth="yes"/>
      <point x="237" y="-13" type="line" smooth="yes"/>
      <point x="211" y="-13"/>
      <point x="197" y="-31"/>
      <point x="197" y="-59" type="curve" smooth="yes"/>
      <point x="197" y="-91"/>
      <point x="212" y="-128"/>
      <point x="260" y="-169" type="curve"/>
      <point x="123" y="-169" type="line"/>
      <point x="83" y="-117"/>
      <point x="68" y="-68"/>
      <point x="68" y="-22" type="curve" smooth="yes"/>
      <point x="68" y="50"/>
      <point x="114" y="109"/>
      <point x="169" y="109" type="curve" smooth="yes"/>
      <point x="270" y="109" type="line" smooth="yes"/>
      <point x="313" y="109"/>
      <point x="347" y="140"/>
      <point x="347" y="179" type="curve" smooth="yes"/>
      <point x="347" y="210"/>
      <point x="319" y="241"/>
      <point x="260" y="241" type="curve" smooth="yes"/>
    </contour>
  </outline>
</glyph>
<glyph name="uni0473" format="1">
  <advance width="645"/>
  <unicode hex="0473"/>
  <outline>
    <contour>
      <point x="325" y="567" type="curve" smooth="yes"/>
      <point x="486" y="567"/>
      <point x="617" y="436"/>
      <point x="617" y="276" type="curve" smooth="yes"/>
      <point x="617" y="117"/>
      <point x="485" y="-13"/>
      <point x="323" y="-13" type="curve" smooth="yes"/>
      <point x="160" y="-13"/>
      <point x="28" y="117"/>
      <point x="28" y="276" type="curve" smooth="yes"/>
      <point x="28" y="438"/>
      <point x="159" y="567"/>
    </contour>
    <contour>
      <point x="174" y="340" type="curve"/>
      <point x="471" y="340" type="line"/>
      <point x="447" y="402"/>
      <point x="389" y="445"/>
      <point x="320" y="445" type="curve" smooth="yes"/>
      <point x="255" y="445"/>
      <point x="198" y="401"/>
    </contour>
    <contour>
      <point x="172" y="219" type="line"/>
      <point x="194" y="155"/>
      <point x="253" y="109"/>
      <point x="322" y="109" type="curve" smooth="yes"/>
      <point x="392" y="109"/>
      <point x="451" y="155"/>
      <point x="473" y="219" type="curve"/>
    </contour>
  </outline>
</glyph>
<glyph name="uni0475" format="1">
  <advance width="582"/>
  <unicode hex="0475"/>
  <outline>
    <contour>
      <point x="299" y="623" type="move" name="Anchor-0"/>
    </contour>
    <contour>
      <point x="226" y="0" type="line"/>
      <point x="3" y="554" type="line"/>
      <point x="151" y="554" type="line"/>
      <point x="279" y="187" type="line"/>
      <point x="360" y="424" type="line" smooth="yes"/>
      <point x="398" y="533"/>
      <point x="452" y="554"/>
      <point x="522" y="554" type="curve" smooth="yes"/>
      <point x="574" y="554" type="line"/>
      <point x="574" y="433" type="line"/>
      <point x="557" y="433" type="line" smooth="yes"/>
      <point x="520" y="433"/>
      <point x="497" y="411"/>
      <point x="485" y="380" type="curve" smooth="yes"/>
      <point x="332" y="0" type="line"/>
    </contour>
  </outline>
</glyph>
<glyph name="uni0477" format="1">
  <advance width="697"/>
  <unicode hex="0477"/>
  <outline>
    <contour>
      <point x="18" y="751" type="line"/>
      <point x="74" y="839" type="line"/>
      <point x="296" y="706" type="line"/>
      <point x="244" y="627" type="line"/>
    </contour>
    <contour>
      <point x="288" y="751" type="line"/>
      <point x="344" y="839" type="line"/>
      <point x="566" y="706" type="line"/>
      <point x="514" y="627" type="line"/>
    </contour>
    <contour>
      <point x="316" y="0" type="line"/>
      <point x="93" y="554" type="line"/>
      <point x="241" y="554" type="line"/>
      <point x="369" y="187" type="line"/>
      <point x="450" y="424" type="line" smooth="yes"/>
      <point x="488" y="533"/>
      <point x="542" y="554"/>
      <point x="612" y="554" type="curve" smooth="yes"/>
      <point x="664" y="554" type="line"/>
      <point x="664" y="433" type="line"/>
      <point x="647" y="433" type="line" smooth="yes"/>
      <point x="610" y="433"/>
      <point x="587" y="411"/>
      <point x="575" y="380" type="curve" smooth="yes"/>
      <point x="422" y="0" type="line"/>
    </contour>
  </outline>
</glyph>
<glyph name="uni047A" format="1">
  <advance width="842"/>
  <unicode hex="047A"/>
  <outline>
    <contour>
      <point x="270" y="722" type="curve"/>
      <point x="288" y="786"/>
      <point x="346" y="833"/>
      <point x="419" y="833" type="curve" smooth="yes"/>
      <point x="485" y="833"/>
      <point x="539" y="790"/>
      <point x="558" y="729" type="curve"/>
      <point x="703" y="675"/>
      <point x="806" y="535"/>
      <point x="806" y="370" type="curve" smooth="yes"/>
      <point x="806" y="200"/>
      <point x="703" y="60"/>
      <point x="554" y="9" type="curve"/>
      <point x="533" y="-48"/>
      <point x="479" y="-87"/>
      <point x="415" y="-87" type="curve" smooth="yes"/>
      <point x="348" y="-87"/>
      <point x="293" y="-44"/>
      <point x="273" y="16" type="curve"/>
      <point x="133" y="74"/>
      <point x="36" y="208"/>
      <point x="36" y="369" type="curve" smooth="yes"/>
      <point x="36" y="530"/>
      <point x="131" y="664"/>
    </contour>
    <contour>
      <point x="296" y="587" type="curve"/>
      <point x="223" y="544"/>
      <point x="174" y="463"/>
      <point x="174" y="370" type="curve" smooth="yes"/>
      <point x="174" y="278"/>
      <point x="221" y="199"/>
      <point x="293" y="155" type="curve"/>
      <point x="320" y="194"/>
      <point x="366" y="219"/>
      <point x="419" y="219" type="curve" smooth="yes"/>
      <point x="472" y="219"/>
      <point x="517" y="191"/>
      <point x="543" y="148" type="curve"/>
      <point x="619" y="189"/>
      <point x="668" y="270"/>
      <point x="668" y="368" type="curve" smooth="yes"/>
      <point x="668" y="468"/>
      <point x="617" y="551"/>
      <point x="538" y="592" type="curve"/>
      <point x="511" y="552"/>
      <point x="467" y="527"/>
      <point x="415" y="527" type="curve" smooth="yes"/>
      <point x="366" y="527"/>
      <point x="323" y="550"/>
    </contour>
  </outline>
</glyph>
<glyph name="uni047B" format="1">
  <advance width="645"/>
  <unicode hex="047B"/>
  <outline>
    <contour>
      <point x="217" y="548" type="curve"/>
      <point x="237" y="586"/>
      <point x="278" y="612"/>
      <point x="326" y="612" type="curve" smooth="yes"/>
      <point x="372" y="612"/>
      <point x="410" y="586"/>
      <point x="430" y="548" type="curve"/>
      <point x="539" y="505"/>
      <point x="617" y="399"/>
      <point x="617" y="276" type="curve" smooth="yes"/>
      <point x="617" y="153"/>
      <point x="538" y="48"/>
      <point x="428" y="6" type="curve"/>
      <point x="408" y="-31"/>
      <point x="369" y="-56"/>
      <point x="323" y="-56" type="curve" smooth="yes"/>
      <point x="278" y="-56"/>
      <point x="239" y="-32"/>
      <point x="218" y="6" type="curve"/>
      <point x="107" y="47"/>
      <point x="28" y="153"/>
      <point x="28" y="276" type="curve" smooth="yes"/>
      <point x="28" y="401"/>
      <point x="105" y="506"/>
    </contour>
    <contour>
      <point x="229" y="414" type="curve"/>
      <point x="189" y="383"/>
      <point x="162" y="333"/>
      <point x="162" y="277" type="curve" smooth="yes"/>
      <point x="162" y="221"/>
      <point x="188" y="172"/>
      <point x="228" y="141" type="curve"/>
      <point x="250" y="170"/>
      <point x="285" y="188"/>
      <point x="326" y="188" type="curve" smooth="yes"/>
      <point x="364" y="188"/>
      <point x="397" y="171"/>
      <point x="418" y="142" type="curve"/>
      <point x="458" y="173"/>
      <point x="483" y="221"/>
      <point x="483" y="276" type="curve" smooth="yes"/>
      <point x="483" y="333"/>
      <point x="457" y="382"/>
      <point x="417" y="413" type="curve"/>
      <point x="395" y="385"/>
      <point x="361" y="368"/>
      <point x="323" y="368" type="curve" smooth="yes"/>
      <point x="285" y="368"/>
      <point x="251" y="385"/>
    </contour>
  </outline>
</glyph>
<glyph name="uni047C" format="1">
  <advance width="860"/>
  <unicode hex="047C"/>
  <outline>
    <contour>
      <point x="398" y="689" type="curve"/>
      <point x="394" y="689" type="line" smooth="yes"/>
      <point x="380" y="689"/>
      <point x="346" y="710"/>
      <point x="346" y="752" type="curve" smooth="yes"/>
      <point x="346" y="801"/>
      <point x="379" y="836"/>
      <point x="433" y="836" type="curve" smooth="yes"/>
      <point x="437" y="836" type="line" smooth="yes"/>
      <point x="492" y="836"/>
      <point x="527" y="807"/>
      <point x="527" y="757" type="curve" smooth="yes"/>
      <point x="527" y="744" type="line" smooth="yes"/>
      <point x="527" y="686"/>
      <point x="478" y="633"/>
      <point x="446" y="607" type="curve"/>
      <point x="332" y="607" type="line"/>
      <point x="365" y="631"/>
      <point x="398" y="662"/>
    </contour>
    <contour>
      <point x="272" y="607" type="line" smooth="yes"/>
      <point x="228" y="607"/>
      <point x="197" y="557"/>
      <point x="197" y="497" type="curve" smooth="yes"/>
      <point x="197" y="227" type="line" smooth="yes"/>
      <point x="197" y="148"/>
      <point x="238" y="119"/>
      <point x="288" y="119" type="curve" smooth="yes"/>
      <point x="329" y="119"/>
      <point x="361" y="159"/>
      <point x="361" y="191" type="curve" smooth="yes"/>
      <point x="361" y="277" type="line"/>
      <point x="498" y="277" type="line"/>
      <point x="498" y="191" type="line" smooth="yes"/>
      <point x="498" y="157"/>
      <point x="550" y="119"/>
      <point x="575" y="119" type="curve" smooth="yes"/>
      <point x="638" y="119"/>
      <point x="663" y="148"/>
      <point x="663" y="227" type="curve" smooth="yes"/>
      <point x="663" y="497" type="line" smooth="yes"/>
      <point x="663" y="576"/>
      <point x="627" y="607"/>
      <point x="589" y="607" type="curve" smooth="yes"/>
      <point x="559" y="607" type="line"/>
      <point x="559" y="739" type="line"/>
      <point x="659" y="739" type="line" smooth="yes"/>
      <point x="759" y="739"/>
      <point x="800" y="654"/>
      <point x="800" y="497" type="curve" smooth="yes"/>
      <point x="800" y="227" type="line" smooth="yes"/>
      <point x="800" y="60"/>
      <point x="728" y="-13"/>
      <point x="585" y="-13" type="curve" smooth="yes"/>
      <point x="492" y="-13"/>
      <point x="448" y="52"/>
      <point x="430" y="80" type="curve"/>
      <point x="411" y="52"/>
      <point x="361" y="-13"/>
      <point x="268" y="-13" type="curve" smooth="yes"/>
      <point x="144" y="-13"/>
      <point x="60" y="64"/>
      <point x="60" y="227" type="curve" smooth="yes"/>
      <point x="60" y="497" type="line" smooth="yes"/>
      <point x="60" y="651"/>
      <point x="118" y="739"/>
      <point x="201" y="739" type="curve" smooth="yes"/>
      <point x="301" y="739" type="line"/>
      <point x="301" y="607" type="line"/>
    </contour>
    <contour>
      <point x="698" y="934" type="line"/>
      <point x="698" y="800" type="line"/>
      <point x="659" y="800" type="line" smooth="yes"/>
      <point x="548" y="800"/>
      <point x="476" y="902"/>
      <point x="396" y="902" type="curve" smooth="yes"/>
      <point x="315" y="902"/>
      <point x="301" y="853"/>
      <point x="301" y="820" type="curve" smooth="yes"/>
      <point x="301" y="800" type="line"/>
      <point x="164" y="800" type="line"/>
      <point x="164" y="824" type="line" smooth="yes"/>
      <point x="164" y="972"/>
      <point x="286" y="1035"/>
      <point x="384" y="1035" type="curve" smooth="yes"/>
      <point x="509" y="1035"/>
      <point x="580" y="934"/>
      <point x="660" y="934" type="curve" smooth="yes"/>
    </contour>
  </outline>
</glyph>
<glyph name="uni047D" format="1">
  <advance width="860"/>
  <unicode hex="047D"/>
  <outline>
    <contour>
      <point x="268" y="415" type="line" smooth="yes"/>
      <point x="224" y="415"/>
      <point x="193" y="378"/>
      <point x="193" y="335" type="curve" smooth="yes"/>
      <point x="193" y="227" type="line" smooth="yes"/>
      <point x="193" y="141"/>
      <point x="240" y="109"/>
      <point x="298" y="109" type="curve" smooth="yes"/>
      <point x="335" y="109"/>
      <point x="364" y="135"/>
      <point x="364" y="191" type="curve" smooth="yes"/>
      <point x="364" y="277" type="line"/>
      <point x="497" y="277" type="line"/>
      <point x="497" y="191" type="line" smooth="yes"/>
      <point x="497" y="132"/>
      <point x="543" y="109"/>
      <point x="565" y="109" type="curve" smooth="yes"/>
      <point x="638" y="109"/>
      <point x="667" y="140"/>
      <point x="667" y="227" type="curve" smooth="yes"/>
      <point x="667" y="335" type="line" smooth="yes"/>
      <point x="667" y="392"/>
      <point x="631" y="415"/>
      <point x="592" y="415" type="curve" smooth="yes"/>
      <point x="579" y="415" type="line"/>
      <point x="579" y="547" type="line"/>
      <point x="659" y="547" type="line" smooth="yes"/>
      <point x="759" y="547"/>
      <point x="800" y="469"/>
      <point x="800" y="325" type="curve" smooth="yes"/>
      <point x="800" y="227" type="line" smooth="yes"/>
      <point x="800" y="60"/>
      <point x="728" y="-13"/>
      <point x="585" y="-13" type="curve" smooth="yes"/>
      <point x="512" y="-13"/>
      <point x="448" y="45"/>
      <point x="430" y="70" type="curve"/>
      <point x="411" y="45"/>
      <point x="344" y="-13"/>
      <point x="268" y="-13" type="curve" smooth="yes"/>
      <point x="144" y="-13"/>
      <point x="60" y="64"/>
      <point x="60" y="227" type="curve" smooth="yes"/>
      <point x="60" y="325" type="line" smooth="yes"/>
      <point x="60" y="466"/>
      <point x="118" y="547"/>
      <point x="201" y="547" type="curve" smooth="yes"/>
      <point x="281" y="547" type="line"/>
      <point x="281" y="415" type="line"/>
    </contour>
    <contour>
      <point x="698" y="725" type="line"/>
      <point x="698" y="591" type="line"/>
      <point x="659" y="591" type="line" smooth="yes"/>
      <point x="548" y="591"/>
      <point x="476" y="693"/>
      <point x="396" y="693" type="curve" smooth="yes"/>
      <point x="315" y="693"/>
      <point x="301" y="644"/>
      <point x="301" y="611" type="curve" smooth="yes"/>
      <point x="301" y="591" type="line"/>
      <point x="164" y="591" type="line"/>
      <point x="164" y="615" type="line" smooth="yes"/>
      <point x="164" y="763"/>
      <point x="286" y="826"/>
      <point x="384" y="826" type="curve" smooth="yes"/>
      <point x="509" y="826"/>
      <point x="580" y="725"/>
      <point x="660" y="725" type="curve" smooth="yes"/>
    </contour>
    <contour>
      <point x="398" y="469" type="curve"/>
      <point x="394" y="469" type="line" smooth="yes"/>
      <point x="380" y="469"/>
      <point x="346" y="490"/>
      <point x="346" y="532" type="curve" smooth="yes"/>
      <point x="346" y="581"/>
      <point x="379" y="616"/>
      <point x="433" y="616" type="curve" smooth="yes"/>
      <point x="437" y="616" type="line" smooth="yes"/>
      <point x="492" y="616"/>
      <point x="527" y="587"/>
      <point x="527" y="537" type="curve" smooth="yes"/>
      <point x="527" y="524" type="line" smooth="yes"/>
      <point x="527" y="466"/>
      <point x="478" y="413"/>
      <point x="446" y="387" type="curve"/>
      <point x="332" y="387" type="line"/>
      <point x="365" y="411"/>
      <point x="398" y="442"/>
    </contour>
  </outline>
</glyph>
<glyph name="uni0486" format="1">
  <advance width="0"/>
  <unicode hex="0486"/>
  <outline>
    <contour>
      <point x="-196" y="689" type="curve"/>
      <point x="-200" y="689" type="line" smooth="yes"/>
      <point x="-214" y="689"/>
      <point x="-248" y="710"/>
      <point x="-248" y="752" type="curve" smooth="yes"/>
      <point x="-248" y="801"/>
      <point x="-215" y="836"/>
      <point x="-161" y="836" type="curve" smooth="yes"/>
      <point x="-157" y="836" type="line" smooth="yes"/>
      <point x="-102" y="836"/>
      <point x="-67" y="807"/>
      <point x="-67" y="757" type="curve" smooth="yes"/>
      <point x="-67" y="744" type="line" smooth="yes"/>
      <point x="-67" y="686"/>
      <point x="-116" y="633"/>
      <point x="-148" y="607" type="curve"/>
      <point x="-262" y="607" type="line"/>
      <point x="-229" y="631"/>
      <point x="-196" y="662"/>
    </contour>
  </outline>
</glyph>
<glyph name="uni0431.loclBGR" format="1">
  <advance width="648"/>
  <outline>
    <contour>
      <point x="342" y="819" type="move" name="Anchor-0"/>
    </contour>
    <contour>
      <point x="325" y="109" type="curve" smooth="yes"/>
      <point x="414" y="109"/>
      <point x="482" y="172"/>
      <point x="482" y="256" type="curve" smooth="yes"/>
      <point x="482" y="342"/>
      <point x="415" y="408"/>
      <point x="326" y="408" type="curve" smooth="yes"/>
      <point x="235" y="408"/>
      <point x="166" y="356"/>
      <point x="166" y="267" type="curve" smooth="yes"/>
      <point x="166" y="178"/>
      <point x="231" y="109"/>
    </contour>
    <contour>
      <point x="528" y="628" type="line"/>
      <point x="332" y="606" type="line" smooth="yes"/>
      <point x="187" y="588"/>
      <point x="169" y="504"/>
      <point x="169" y="478" type="curve"/>
      <point x="172" y="477" type="line"/>
      <point x="201" y="503"/>
      <point x="257" y="530"/>
      <point x="335" y="530" type="curve" smooth="yes"/>
      <point x="493" y="530"/>
      <point x="616" y="410"/>
      <point x="616" y="256" type="curve" smooth="yes"/>
      <point x="616" y="102"/>
      <point x="491" y="-13"/>
      <point x="325" y="-13" type="curve" smooth="yes"/>
      <point x="118" y="-13"/>
      <point x="32" y="135"/>
      <point x="32" y="304" type="curve" smooth="yes"/>
      <point x="32" y="609"/>
      <point x="132" y="694"/>
      <point x="335" y="727" type="curve"/>
      <point x="528" y="752" type="line"/>
    </contour>
  </outline>
</glyph>
<glyph name="uni0432.loclBGR" format="1">
  <advance width="655"/>
  <outline>
    <contour>
      <point x="509" y="402" type="curve"/>
      <point x="555" y="376"/>
      <point x="605" y="314"/>
      <point x="605" y="210" type="curve" smooth="yes"/>
      <point x="605" y="88"/>
      <point x="477" y="-13"/>
      <point x="343" y="-13" type="curve" smooth="yes"/>
      <point x="231" y="-13"/>
      <point x="60" y="13"/>
      <point x="60" y="245" type="curve" smooth="yes"/>
      <point x="60" y="488" type="line" smooth="yes"/>
      <point x="60" y="697"/>
      <point x="217" y="752"/>
      <point x="321" y="752" type="curve" smooth="yes"/>
      <point x="462" y="752"/>
      <point x="587" y="680"/>
      <point x="587" y="534" type="curve" smooth="yes"/>
      <point x="587" y="474"/>
      <point x="550" y="421"/>
    </contour>
    <contour>
      <point x="193" y="490" type="curve" smooth="yes"/>
      <point x="193" y="232" type="line" smooth="yes"/>
      <point x="193" y="155"/>
      <point x="240" y="109"/>
      <point x="335" y="109" type="curve" smooth="yes"/>
      <point x="416" y="109"/>
      <point x="471" y="157"/>
      <point x="471" y="229" type="curve" smooth="yes"/>
      <point x="471" y="294"/>
      <point x="439" y="337"/>
      <point x="364" y="337" type="curve" smooth="yes"/>
      <point x="248" y="337" type="line"/>
      <point x="248" y="435" type="line"/>
      <point x="367" y="435" type="line" smooth="yes"/>
      <point x="430" y="435"/>
      <point x="460" y="474"/>
      <point x="460" y="533" type="curve" smooth="yes"/>
      <point x="460" y="592"/>
      <point x="416" y="630"/>
      <point x="329" y="630" type="curve" smooth="yes"/>
      <point x="237" y="630"/>
      <point x="193" y="580"/>
    </contour>
  </outline>
</glyph>
<glyph name="uni0433.loclBGR" format="1">
  <advance width="438"/>
  <outline>
    <contour>
      <point x="210" y="623" type="move" name="Anchor-0"/>
    </contour>
    <contour>
      <point x="423" y="176" type="line"/>
      <point x="423" y="59"/>
      <point x="337" y="-13"/>
      <point x="220" y="-13" type="curve" smooth="yes"/>
      <point x="109" y="-13"/>
      <point x="22" y="69"/>
      <point x="22" y="174" type="curve" smooth="yes"/>
      <point x="22" y="254"/>
      <point x="64" y="303"/>
      <point x="176" y="338" type="curve" smooth="yes"/>
      <point x="234" y="356"/>
      <point x="270" y="368"/>
      <point x="270" y="403" type="curve" smooth="yes"/>
      <point x="270" y="427"/>
      <point x="248" y="445"/>
      <point x="219" y="445" type="curve" smooth="yes"/>
      <point x="191" y="445"/>
      <point x="167" y="433"/>
      <point x="167" y="401" type="curve"/>
      <point x="37" y="401" type="line"/>
      <point x="37" y="503"/>
      <point x="122" y="567"/>
      <point x="219" y="567" type="curve" smooth="yes"/>
      <point x="323" y="567"/>
      <point x="403" y="493"/>
      <point x="403" y="398" type="curve" smooth="yes"/>
      <point x="403" y="317"/>
      <point x="360" y="271"/>
      <point x="249" y="234" type="curve" smooth="yes"/>
      <point x="192" y="215"/>
      <point x="155" y="202"/>
      <point x="155" y="163" type="curve" smooth="yes"/>
      <point x="155" y="132"/>
      <point x="180" y="109"/>
      <point x="215" y="109" type="curve" smooth="yes"/>
      <point x="254" y="109"/>
      <point x="289" y="130"/>
      <point x="289" y="176" type="curve"/>
    </contour>
  </outline>
</glyph>
<glyph name="uni0434.loclBGR" format="1">
  <advance width="663"/>
  <outline>
    <contour>
      <point x="318" y="445" type="curve" smooth="yes"/>
      <point x="227" y="445"/>
      <point x="166" y="377"/>
      <point x="166" y="275" type="curve" smooth="yes"/>
      <point x="166" y="174"/>
      <point x="227" y="109"/>
      <point x="322" y="109" type="curve" smooth="yes"/>
      <point x="418" y="109"/>
      <point x="480" y="175"/>
      <point x="480" y="277" type="curve" smooth="yes"/>
      <point x="480" y="377"/>
      <point x="415" y="445"/>
    </contour>
    <contour>
      <point x="486" y="554" type="line"/>
      <point x="613" y="554" type="line"/>
      <point x="613" y="105" type="line" smooth="yes"/>
      <point x="613" y="-5"/>
      <point x="595" y="-73"/>
      <point x="552" y="-125" type="curve" smooth="yes"/>
      <point x="500" y="-188"/>
      <point x="423" y="-221"/>
      <point x="326" y="-221" type="curve" smooth="yes"/>
      <point x="190" y="-221"/>
      <point x="86" y="-156"/>
      <point x="41" y="-45" type="curve"/>
      <point x="192" y="-45" type="line"/>
      <point x="231" y="-88"/>
      <point x="269" y="-104"/>
      <point x="331" y="-104" type="curve" smooth="yes"/>
      <point x="430" y="-104"/>
      <point x="481" y="-46"/>
      <point x="486" y="73" type="curve"/>
      <point x="434" y="12"/>
      <point x="382" y="-13"/>
      <point x="304" y="-13" type="curve" smooth="yes"/>
      <point x="146" y="-13"/>
      <point x="32" y="110"/>
      <point x="32" y="281" type="curve" smooth="yes"/>
      <point x="32" y="445"/>
      <point x="148" y="567"/>
      <point x="305" y="567" type="curve" smooth="yes"/>
      <point x="385" y="567"/>
      <point x="444" y="540"/>
      <point x="486" y="484" type="curve"/>
    </contour>
  </outline>
</glyph>
<glyph name="uni0437.loclBGR" format="1">
  <advance width="570"/>
  <outline>
    <contour>
      <point x="32" y="-17" type="curve"/>
      <point x="171" y="-17" type="line"/>
      <point x="188" y="-49"/>
      <point x="219.132" y="-75"/>
      <point x="283" y="-75" type="curve" smooth="yes"/>
      <point x="350" y="-75"/>
      <point x="397" y="-22"/>
      <point x="397" y="42" type="curve" smooth="yes"/>
      <point x="397" y="117"/>
      <point x="344" y="163"/>
      <point x="273" y="163" type="curve" smooth="yes"/>
      <point x="195" y="163" type="line"/>
      <point x="195" y="261" type="line"/>
      <point x="291" y="261" type="line" smooth="yes"/>
      <point x="331.584" y="261"/>
      <point x="375" y="286"/>
      <point x="375" y="357" type="curve" smooth="yes"/>
      <point x="375" y="415"/>
      <point x="332.526" y="447"/>
      <point x="272" y="447" type="curve" smooth="yes"/>
      <point x="224.057" y="447"/>
      <point x="188.559" y="417"/>
      <point x="175" y="362" type="curve"/>
      <point x="45" y="362" type="line"/>
      <point x="67.8996" y="514"/>
      <point x="178.339" y="568"/>
      <point x="273" y="568" type="curve" smooth="yes"/>
      <point x="418.958" y="568"/>
      <point x="501" y="473.169"/>
      <point x="501" y="367" type="curve" smooth="yes"/>
      <point x="501" y="291.503"/>
      <point x="470" y="242.899"/>
      <point x="426" y="215" type="curve"/>
      <point x="485" y="181.485"/>
      <point x="531" y="115.386"/>
      <point x="531" y="38" type="curve" smooth="yes"/>
      <point x="531" y="-103.066"/>
      <point x="423" y="-197"/>
      <point x="282" y="-197" type="curve" smooth="yes"/>
      <point x="155.984" y="-197"/>
      <point x="57" y="-116"/>
    </contour>
  </outline>
</glyph>
<glyph name="uni0438.loclBGR" format="1">
  <advance width="597"/>
  <outline>
    <contour>
      <point x="543" y="554" type="line"/>
      <point x="543" y="0" type="line"/>
      <point x="420" y="0" type="line"/>
      <point x="420" y="53" type="line"/>
      <point x="369" y="4"/>
      <point x="328" y="-13"/>
      <point x="261" y="-13" type="curve" smooth="yes"/>
      <point x="186" y="-13"/>
      <point x="125" y="18"/>
      <point x="89" y="74" type="curve" smooth="yes"/>
      <point x="60" y="119"/>
      <point x="50" y="166"/>
      <point x="50" y="257" type="curve" smooth="yes"/>
      <point x="50" y="554" type="line"/>
      <point x="183" y="554" type="line"/>
      <point x="183" y="283" type="line" smooth="yes"/>
      <point x="183" y="206"/>
      <point x="191" y="167"/>
      <point x="211" y="142" type="curve" smooth="yes"/>
      <point x="230" y="120"/>
      <point x="254" y="109"/>
      <point x="288" y="109" type="curve" smooth="yes"/>
      <point x="334" y="109"/>
      <point x="372" y="128"/>
      <point x="391" y="162" type="curve" smooth="yes"/>
      <point x="405" y="187"/>
      <point x="410" y="222"/>
      <point x="410" y="293" type="curve" smooth="yes"/>
      <point x="410" y="554" type="line"/>
    </contour>
  </outline>
</glyph>
<glyph name="uni0446.loclBGR" format="1">
  <advance width="644"/>
  <outline>
    <contour>
      <point x="304" y="623" type="move" name="Anchor-0"/>
    </contour>
    <contour>
      <point x="501" y="0" type="line"/>
      <point x="470" y="0"/>
      <point x="440" y="22"/>
      <point x="422" y="53" type="curve"/>
      <point x="371" y="4"/>
      <point x="330" y="-13"/>
      <point x="263" y="-13" type="curve" smooth="yes"/>
      <point x="129" y="-13"/>
      <point x="52" y="80"/>
      <point x="52" y="231" type="curve" smooth="yes"/>
      <point x="52" y="554" type="line"/>
      <point x="185" y="554" type="line"/>
      <point x="185" y="273" type="line" smooth="yes"/>
      <point x="185" y="166"/>
      <point x="210" y="109"/>
      <point x="290" y="109" type="curve" smooth="yes"/>
      <point x="374" y="109"/>
      <point x="412" y="160"/>
      <point x="412" y="259" type="curve" smooth="yes"/>
      <point x="412" y="554" type="line"/>
      <point x="545" y="554" type="line"/>
      <point x="545" y="211" type="line"/>
      <point x="545" y="139"/>
      <point x="596" y="98"/>
      <point x="634" y="81" type="curve"/>
      <point x="599" y="-126" type="line"/>
      <point x="491" y="-126" type="line"/>
    </contour>
  </outline>
</glyph>
<glyph name="uni0449.loclBGR" format="1">
  <advance width="994"/>
  <outline>
    <contour>
      <point x="763" y="52" type="curve"/>
      <point x="724" y="5"/>
      <point x="684" y="-13"/>
      <point x="619" y="-13" type="curve" smooth="yes"/>
      <point x="542" y="-13"/>
      <point x="494" y="12"/>
      <point x="456" y="73" type="curve"/>
      <point x="411" y="13"/>
      <point x="357" y="-13"/>
      <point x="279" y="-13" type="curve" smooth="yes"/>
      <point x="132" y="-13"/>
      <point x="54" y="72"/>
      <point x="54" y="227" type="curve" smooth="yes"/>
      <point x="54" y="554" type="line"/>
      <point x="187" y="554" type="line"/>
      <point x="187" y="241" type="line" smooth="yes"/>
      <point x="187" y="156"/>
      <point x="222" y="109"/>
      <point x="291" y="109" type="curve" smooth="yes"/>
      <point x="374" y="109"/>
      <point x="403" y="169"/>
      <point x="403" y="265" type="curve" smooth="yes"/>
      <point x="403" y="554" type="line"/>
      <point x="536" y="554" type="line"/>
      <point x="536" y="237" type="line" smooth="yes"/>
      <point x="536" y="153"/>
      <point x="569" y="109"/>
      <point x="643" y="109" type="curve" smooth="yes"/>
      <point x="725" y="109"/>
      <point x="752" y="166"/>
      <point x="752" y="257" type="curve" smooth="yes"/>
      <point x="752" y="554" type="line"/>
      <point x="885" y="554" type="line"/>
      <point x="885" y="211" type="line" smooth="yes"/>
      <point x="885" y="139"/>
      <point x="936" y="98"/>
      <point x="974" y="81" type="curve"/>
      <point x="939" y="-126" type="line"/>
      <point x="831" y="-126" type="line"/>
      <point x="841" y="0" type="line"/>
      <point x="810" y="0"/>
      <point x="781" y="21"/>
    </contour>
  </outline>
</glyph>
<glyph name="uni044C.loclBGR" format="1">
  <advance width="682"/>
  <outline>
    <contour>
      <point x="100" y="623" type="move" name="Anchor-0"/>
    </contour>
    <contour>
      <point x="196" y="232" type="curve" smooth="yes"/>
      <point x="196" y="152"/>
      <point x="266" y="109"/>
      <point x="350" y="109" type="curve" smooth="yes"/>
      <point x="429" y="109"/>
      <point x="495" y="148"/>
      <point x="495" y="232" type="curve" smooth="yes"/>
      <point x="495" y="307"/>
      <point x="437" y="363"/>
      <point x="350" y="363" type="curve" smooth="yes"/>
      <point x="257" y="363"/>
      <point x="196" y="308"/>
    </contour>
    <contour>
      <point x="375" y="485" type="curve" smooth="yes"/>
      <point x="531" y="485"/>
      <point x="629" y="369"/>
      <point x="629" y="232" type="curve" smooth="yes"/>
      <point x="629" y="81"/>
      <point x="510" y="-13"/>
      <point x="345" y="-13" type="curve" smooth="yes"/>
      <point x="180" y="-13"/>
      <point x="63" y="81"/>
      <point x="63" y="232" type="curve" smooth="yes"/>
      <point x="63" y="554" type="line"/>
      <point x="196" y="554" type="line"/>
      <point x="196" y="428" type="line"/>
      <point x="228" y="459"/>
      <point x="303" y="485"/>
    </contour>
  </outline>
</glyph>
